<?xml version="1.0" standalone="no"?><!DOCTYPE svg PUBLIC "-//W3C//DTD SVG 1.1//EN" "http://www.w3.org/Graphics/SVG/1.1/DTD/svg11.dtd"><svg t="1550385986394" class="icon" style="" viewBox="0 0 1024 1024" version="1.1" xmlns="http://www.w3.org/2000/svg" p-id="1073" xmlns:xlink="http://www.w3.org/1999/xlink" width="512" height="512"><defs><style type="text/css"></style></defs><path d="M798.4 761.6H224c-16.2 0-29.3-13.1-29.3-29.3V316.7c0-16.2 13.1-29.3 29.3-29.3h574.4c16.2 0 29.3 13.1 29.3 29.3v415.6c0 16.2-13.1 29.3-29.3 29.3z" fill="#E5E8EA" p-id="1074"></path><path d="M843.1 716.2H268.7c-16.2 0-29.3-13.1-29.3-29.3V271.3c0-16.2 13.1-29.3 29.3-29.3h574.4c16.2 0 29.3 13.1 29.3 29.3v415.6c0 16.1-13.2 29.3-29.3 29.3z" fill="#FFFFFF" p-id="1075"></path><path d="M843.1 730.2H268.7c-23.9 0-43.3-19.4-43.3-43.3V271.3c0-23.9 19.4-43.3 43.3-43.3h574.4c23.9 0 43.3 19.4 43.3 43.3v415.6c0 23.8-19.5 43.3-43.3 43.3zM268.7 256c-8.4 0-15.3 6.9-15.3 15.3v415.6c0 8.4 6.9 15.3 15.3 15.3h574.4c8.4 0 15.3-6.9 15.3-15.3V271.3c0-8.4-6.9-15.3-15.3-15.3H268.7z" fill="" p-id="1076"></path><path d="M602.3 410.2l-49.2 122.5c-2.9 7.2-11 10.7-18.2 7.8-7.2-2.9-10.7-11-7.8-18.2l49.2-122.5c2.9-7.2 11-10.7 18.2-7.8 7.2 2.9 10.7 11 7.8 18.2z" fill="#E9007D" p-id="1077"></path><path d="M341.2 680.2c-1.1 0-2.2 0-3.3 0.1-8.6-35.8-40.8-62.4-79.2-62.4-41.5 0-75.8 31.1-80.8 71.3-35 1.2-63 29.9-63 65.2 0 36 29.2 65.3 65.3 65.3h156.5v-0.1c1.5 0.1 2.9 0.1 4.4 0.1 38.5 0 69.7-31.2 69.7-69.7 0.1-38.6-31.1-69.8-69.6-69.8z" fill="#E5E8EA" p-id="1078"></path><path d="M365.3 671.2c-1.1 0-2.2 0-3.3 0.1-8.6-35.8-40.8-62.4-79.2-62.4-41.5 0-75.8 31.1-80.8 71.3-35 1.2-63 29.9-63 65.2 0 36 29.2 65.3 65.3 65.3h156.5v-0.1c1.5 0.1 2.9 0.1 4.4 0.1 38.5 0 69.7-31.2 69.7-69.7s-31.1-69.8-69.6-69.8z" fill="#1888FF" p-id="1079"></path><path d="M365.3 824.6c-1 0-2.1 0-3.1-0.1-0.4 0-0.9 0.1-1.3 0.1H204.4c-43.7 0-79.3-35.6-79.3-79.3 0-20.7 7.9-40.3 22.3-55.1 11.7-12.1 26.6-20 42.8-22.9 10.4-42 48.4-72.5 92.6-72.5 21.6 0 42.7 7.4 59.5 20.8 13.7 10.9 24.1 25.5 30.1 41.8 42.8 3.6 76.5 39.7 76.5 83.4 0.1 46.2-37.4 83.8-83.6 83.8z m-4.4-28.2h0.9c1.3 0.1 2.4 0.1 3.6 0.1 30.7 0 55.7-25 55.7-55.7 0-30.7-25-55.7-55.7-55.7-0.8 0-1.7 0-2.6 0.1-6.7 0.3-12.7-4.2-14.3-10.7-7.3-30.4-34.2-51.7-65.6-51.7-33.9 0-62.7 25.4-66.9 59-0.8 6.8-6.5 12-13.4 12.3-27.7 1-49.5 23.5-49.5 51.2 0 28.3 23 51.3 51.3 51.3h154.5c0.6-0.1 1.3-0.2 2-0.2z" fill="" p-id="1080"></path><path d="M240.2 702m-9.7 0a9.7 9.7 0 1 0 19.4 0 9.7 9.7 0 1 0-19.4 0Z" fill="#FFFFFF" p-id="1081"></path><path d="M325.5 702m-9.7 0a9.7 9.7 0 1 0 19.4 0 9.7 9.7 0 1 0-19.4 0Z" fill="#FFFFFF" p-id="1082"></path><path d="M302.3 747.1c0 9.3-8.3 16.9-18.6 16.9s-18.6-7.6-18.6-16.9" fill="#FFFFFF" p-id="1083"></path><path d="M302 308m-16 0a16 16 0 1 0 32 0 16 16 0 1 0-32 0Z" fill="#1888FF" p-id="1084"></path><path d="M351.7 308m-16 0a16 16 0 1 0 32 0 16 16 0 1 0-32 0Z" fill="#52ADFF" p-id="1085"></path><path d="M401.3 308m-16 0a16 16 0 1 0 32 0 16 16 0 1 0-32 0Z" fill="#B5D9F4" p-id="1086"></path><path d="M422.4 413.7L360.2 476c-5.5 5.5-14.3 5.5-19.8 0s-5.5-14.3 0-19.8l62.3-62.3c5.5-5.5 14.3-5.5 19.8 0 5.4 5.5 5.4 14.3-0.1 19.8z" fill="#B5D9F4" p-id="1087"></path><path d="M402.6 538.2L340.4 476c-5.5-5.5-5.5-14.3 0-19.8s14.3-5.5 19.8 0l62.3 62.3c5.5 5.5 5.5 14.3 0 19.8-5.5 5.4-14.4 5.4-19.9-0.1z" fill="#B5D9F4" p-id="1088"></path><path d="M429.7 413.9l-62.3 62.3c-5.5 5.5-14.3 5.5-19.8 0s-5.5-14.3 0-19.8l62.3-62.3c5.5-5.5 14.3-5.5 19.8 0 5.5 5.4 5.5 14.3 0 19.8z" fill="#1888FF" p-id="1089"></path><path d="M409.9 538.4l-62.3-62.3c-5.5-5.5-5.5-14.3 0-19.8s14.3-5.5 19.8 0l62.3 62.3c5.5 5.5 5.5 14.3 0 19.8s-14.3 5.5-19.8 0z" fill="#1888FF" p-id="1090"></path><path d="M693 518.6l62.3-62.3c5.5-5.5 14.3-5.5 19.8 0s5.5 14.3 0 19.8l-62.3 62.3c-5.5 5.5-14.3 5.5-19.8 0-5.4-5.5-5.4-14.3 0-19.8z" fill="#B5D9F4" p-id="1091"></path><path d="M712.8 394.1l62.3 62.3c5.5 5.5 5.5 14.3 0 19.8s-14.3 5.5-19.8 0L693 413.9c-5.5-5.5-5.5-14.3 0-19.8s14.4-5.5 19.8 0z" fill="#B5D9F4" p-id="1092"></path><path d="M699.7 518.6l62.3-62.3c5.5-5.5 14.3-5.5 19.8 0s5.5 14.3 0 19.8l-62.3 62.3c-5.5 5.5-14.3 5.5-19.8 0s-5.5-14.3 0-19.8z" fill="#1888FF" p-id="1093"></path><path d="M719.5 394.1l62.3 62.3c5.5 5.5 5.5 14.3 0 19.8s-14.3 5.5-19.8 0l-62.3-62.3c-5.5-5.5-5.5-14.3 0-19.8 5.4-5.5 14.3-5.5 19.8 0z" fill="#1888FF" p-id="1094"></path></svg>